<mxfile host="app.diagrams.net" agent="Mozilla/5.0 (Windows NT 10.0; Win64; x64) AppleWebKit/537.36 (KHTML, like Gecko) Chrome/133.0.0.0 Safari/537.36 Edg/133.0.0.0" version="26.0.16">
  <diagram name="Page-1" id="Fura0IFlR3WcPwRPqnOE">
    <mxGraphModel dx="1558" dy="1046" grid="0" gridSize="10" guides="1" tooltips="1" connect="1" arrows="1" fold="1" page="0" pageScale="1" pageWidth="850" pageHeight="1100" math="0" shadow="0">
      <root>
        <mxCell id="0" />
        <mxCell id="1" parent="0" />
        <mxCell id="AoH2jqG6qm3q8wurrTMe-1" value="" style="rounded=0;whiteSpace=wrap;html=1;" vertex="1" parent="1">
          <mxGeometry x="49" y="-198" width="382" height="577" as="geometry" />
        </mxCell>
        <mxCell id="AoH2jqG6qm3q8wurrTMe-2" value="Library Management System" style="text;html=1;align=center;verticalAlign=middle;whiteSpace=wrap;rounded=0;" vertex="1" parent="1">
          <mxGeometry x="162" y="-198" width="157" height="30" as="geometry" />
        </mxCell>
        <mxCell id="AoH2jqG6qm3q8wurrTMe-3" value="User" style="shape=umlActor;verticalLabelPosition=bottom;verticalAlign=top;html=1;outlineConnect=0;" vertex="1" parent="1">
          <mxGeometry x="-127" y="75" width="30" height="60" as="geometry" />
        </mxCell>
        <mxCell id="AoH2jqG6qm3q8wurrTMe-4" value="Librarian" style="shape=umlActor;verticalLabelPosition=bottom;verticalAlign=top;html=1;outlineConnect=0;" vertex="1" parent="1">
          <mxGeometry x="595" y="-8" width="30" height="60" as="geometry" />
        </mxCell>
        <mxCell id="AoH2jqG6qm3q8wurrTMe-5" value="Login" style="ellipse;whiteSpace=wrap;html=1;" vertex="1" parent="1">
          <mxGeometry x="62" y="-75" width="91" height="36" as="geometry" />
        </mxCell>
        <mxCell id="AoH2jqG6qm3q8wurrTMe-6" value="Verify details" style="ellipse;whiteSpace=wrap;html=1;" vertex="1" parent="1">
          <mxGeometry x="292.5" y="-111" width="91" height="36" as="geometry" />
        </mxCell>
        <mxCell id="AoH2jqG6qm3q8wurrTMe-7" value="Display Login error" style="ellipse;whiteSpace=wrap;html=1;" vertex="1" parent="1">
          <mxGeometry x="319" y="-63" width="95" height="38" as="geometry" />
        </mxCell>
        <mxCell id="AoH2jqG6qm3q8wurrTMe-8" value="&amp;lt;&amp;lt;include&amp;gt;&amp;gt;" style="html=1;verticalAlign=bottom;labelBackgroundColor=default;endArrow=open;endFill=0;dashed=1;rounded=0;fontSize=12;startSize=8;endSize=8;curved=1;exitX=1;exitY=0;exitDx=0;exitDy=0;entryX=0;entryY=0;entryDx=0;entryDy=0;" edge="1" parent="1" source="AoH2jqG6qm3q8wurrTMe-5" target="AoH2jqG6qm3q8wurrTMe-6">
          <mxGeometry x="-0.1771" y="-1" width="160" relative="1" as="geometry">
            <mxPoint x="170" y="-107" as="sourcePoint" />
            <mxPoint x="330" y="-107" as="targetPoint" />
            <mxPoint as="offset" />
          </mxGeometry>
        </mxCell>
        <mxCell id="AoH2jqG6qm3q8wurrTMe-9" value="&amp;lt;&amp;lt;extend&amp;gt;&amp;gt;" style="edgeStyle=none;html=1;startArrow=open;endArrow=none;startSize=12;verticalAlign=bottom;dashed=1;labelBackgroundColor=default;rounded=0;fontSize=12;curved=1;entryX=0;entryY=0;entryDx=0;entryDy=0;exitX=1;exitY=0.5;exitDx=0;exitDy=0;fontColor=default;" edge="1" parent="1" source="AoH2jqG6qm3q8wurrTMe-5" target="AoH2jqG6qm3q8wurrTMe-7">
          <mxGeometry x="0.0637" y="-14" width="160" relative="1" as="geometry">
            <mxPoint x="61" y="-45" as="sourcePoint" />
            <mxPoint x="221" y="-45" as="targetPoint" />
            <mxPoint as="offset" />
          </mxGeometry>
        </mxCell>
        <mxCell id="AoH2jqG6qm3q8wurrTMe-10" value="Forgot Password" style="ellipse;whiteSpace=wrap;html=1;" vertex="1" parent="1">
          <mxGeometry x="71" y="302" width="106" height="53" as="geometry" />
        </mxCell>
        <mxCell id="AoH2jqG6qm3q8wurrTMe-11" value="Dashboard" style="ellipse;whiteSpace=wrap;html=1;" vertex="1" parent="1">
          <mxGeometry x="73" y="10" width="91" height="36" as="geometry" />
        </mxCell>
        <mxCell id="AoH2jqG6qm3q8wurrTMe-12" value="" style="endArrow=none;html=1;rounded=0;fontSize=12;startSize=8;endSize=8;curved=1;exitX=0.449;exitY=-0.012;exitDx=0;exitDy=0;exitPerimeter=0;entryX=0.482;entryY=1;entryDx=0;entryDy=0;entryPerimeter=0;" edge="1" parent="1" source="AoH2jqG6qm3q8wurrTMe-11" target="AoH2jqG6qm3q8wurrTMe-5">
          <mxGeometry width="50" height="50" relative="1" as="geometry">
            <mxPoint x="344" y="120" as="sourcePoint" />
            <mxPoint x="111" y="-79" as="targetPoint" />
          </mxGeometry>
        </mxCell>
        <mxCell id="AoH2jqG6qm3q8wurrTMe-13" value="" style="endArrow=none;html=1;rounded=0;fontSize=12;startSize=8;endSize=8;curved=1;entryX=0.5;entryY=0.5;entryDx=0;entryDy=0;entryPerimeter=0;exitX=0.5;exitY=1;exitDx=0;exitDy=0;" edge="1" parent="1" source="AoH2jqG6qm3q8wurrTMe-5" target="AoH2jqG6qm3q8wurrTMe-4">
          <mxGeometry width="50" height="50" relative="1" as="geometry">
            <mxPoint x="122" y="27" as="sourcePoint" />
            <mxPoint x="172" y="-23" as="targetPoint" />
          </mxGeometry>
        </mxCell>
        <mxCell id="AoH2jqG6qm3q8wurrTMe-14" value="See available books" style="ellipse;whiteSpace=wrap;html=1;" vertex="1" parent="1">
          <mxGeometry x="71" y="67.25" width="104" height="46.5" as="geometry" />
        </mxCell>
        <mxCell id="AoH2jqG6qm3q8wurrTMe-15" value="Buy Books" style="ellipse;whiteSpace=wrap;html=1;" vertex="1" parent="1">
          <mxGeometry x="251" y="-4" width="104" height="46.5" as="geometry" />
        </mxCell>
        <mxCell id="AoH2jqG6qm3q8wurrTMe-16" value="Open and read books" style="ellipse;whiteSpace=wrap;html=1;" vertex="1" parent="1">
          <mxGeometry x="233" y="167" width="104" height="46.5" as="geometry" />
        </mxCell>
        <mxCell id="AoH2jqG6qm3q8wurrTMe-17" value="&amp;lt;&amp;lt;extend&amp;gt;&amp;gt;" style="edgeStyle=none;html=1;startArrow=open;endArrow=none;startSize=12;verticalAlign=bottom;dashed=1;labelBackgroundColor=default;rounded=0;fontSize=12;curved=1;entryX=0;entryY=0.5;entryDx=0;entryDy=0;exitX=1;exitY=0.5;exitDx=0;exitDy=0;" edge="1" parent="1" source="AoH2jqG6qm3q8wurrTMe-14" target="AoH2jqG6qm3q8wurrTMe-15">
          <mxGeometry x="-0.2716" y="-9" width="160" relative="1" as="geometry">
            <mxPoint x="102" y="75" as="sourcePoint" />
            <mxPoint x="262" y="75" as="targetPoint" />
            <mxPoint as="offset" />
          </mxGeometry>
        </mxCell>
        <mxCell id="AoH2jqG6qm3q8wurrTMe-18" value="&amp;lt;&amp;lt;extend&amp;gt;&amp;gt;" style="edgeStyle=none;html=1;startArrow=open;endArrow=none;startSize=12;verticalAlign=bottom;dashed=1;labelBackgroundColor=default;rounded=0;fontSize=12;curved=1;entryX=0;entryY=0;entryDx=0;entryDy=0;exitX=1;exitY=1;exitDx=0;exitDy=0;" edge="1" parent="1" source="AoH2jqG6qm3q8wurrTMe-14" target="AoH2jqG6qm3q8wurrTMe-16">
          <mxGeometry x="0.1638" y="-2" width="160" relative="1" as="geometry">
            <mxPoint x="185" y="101" as="sourcePoint" />
            <mxPoint x="281" y="11" as="targetPoint" />
            <mxPoint as="offset" />
          </mxGeometry>
        </mxCell>
        <mxCell id="AoH2jqG6qm3q8wurrTMe-19" value="" style="endArrow=none;html=1;rounded=0;fontSize=12;startSize=8;endSize=8;curved=1;exitX=1;exitY=0.3333333333333333;exitDx=0;exitDy=0;exitPerimeter=0;entryX=0;entryY=0.5;entryDx=0;entryDy=0;" edge="1" parent="1" source="AoH2jqG6qm3q8wurrTMe-3" target="AoH2jqG6qm3q8wurrTMe-5">
          <mxGeometry width="50" height="50" relative="1" as="geometry">
            <mxPoint x="-21" y="-16" as="sourcePoint" />
            <mxPoint x="-22" y="-75" as="targetPoint" />
          </mxGeometry>
        </mxCell>
        <mxCell id="AoH2jqG6qm3q8wurrTMe-20" value="" style="endArrow=none;html=1;rounded=0;fontSize=12;startSize=8;endSize=8;curved=1;exitX=1;exitY=0.3333333333333333;exitDx=0;exitDy=0;exitPerimeter=0;entryX=0;entryY=0.5;entryDx=0;entryDy=0;" edge="1" parent="1" source="AoH2jqG6qm3q8wurrTMe-3" target="AoH2jqG6qm3q8wurrTMe-14">
          <mxGeometry width="50" height="50" relative="1" as="geometry">
            <mxPoint x="-37" y="91" as="sourcePoint" />
            <mxPoint x="78" y="-88" as="targetPoint" />
          </mxGeometry>
        </mxCell>
        <mxCell id="AoH2jqG6qm3q8wurrTMe-21" value="Contact admin" style="ellipse;whiteSpace=wrap;html=1;" vertex="1" parent="1">
          <mxGeometry x="81" y="168.75" width="102" height="43" as="geometry" />
        </mxCell>
        <mxCell id="AoH2jqG6qm3q8wurrTMe-22" value="" style="endArrow=none;html=1;rounded=0;fontSize=12;startSize=8;endSize=8;curved=1;exitX=1;exitY=0.3333333333333333;exitDx=0;exitDy=0;exitPerimeter=0;entryX=0;entryY=0.5;entryDx=0;entryDy=0;" edge="1" parent="1" source="AoH2jqG6qm3q8wurrTMe-3" target="AoH2jqG6qm3q8wurrTMe-21">
          <mxGeometry width="50" height="50" relative="1" as="geometry">
            <mxPoint x="-37" y="91" as="sourcePoint" />
            <mxPoint x="81" y="101" as="targetPoint" />
          </mxGeometry>
        </mxCell>
        <mxCell id="AoH2jqG6qm3q8wurrTMe-26" value="" style="endArrow=none;html=1;rounded=0;fontSize=12;startSize=8;endSize=8;curved=1;exitX=1;exitY=0.3333333333333333;exitDx=0;exitDy=0;exitPerimeter=0;entryX=0;entryY=0.5;entryDx=0;entryDy=0;" edge="1" parent="1" source="AoH2jqG6qm3q8wurrTMe-3" target="AoH2jqG6qm3q8wurrTMe-10">
          <mxGeometry width="50" height="50" relative="1" as="geometry">
            <mxPoint x="-87" y="105" as="sourcePoint" />
            <mxPoint x="91" y="200" as="targetPoint" />
          </mxGeometry>
        </mxCell>
        <mxCell id="AoH2jqG6qm3q8wurrTMe-28" value="Check requested Books" style="ellipse;whiteSpace=wrap;html=1;" vertex="1" parent="1">
          <mxGeometry x="286" y="81.75" width="104" height="46.5" as="geometry" />
        </mxCell>
        <mxCell id="AoH2jqG6qm3q8wurrTMe-29" value="" style="endArrow=none;html=1;rounded=0;fontSize=12;startSize=8;endSize=8;curved=1;exitX=1;exitY=0.5;exitDx=0;exitDy=0;entryX=0.5;entryY=0.5;entryDx=0;entryDy=0;entryPerimeter=0;" edge="1" parent="1" source="AoH2jqG6qm3q8wurrTMe-28" target="AoH2jqG6qm3q8wurrTMe-4">
          <mxGeometry width="50" height="50" relative="1" as="geometry">
            <mxPoint x="166" y="-94" as="sourcePoint" />
            <mxPoint x="593" y="-39" as="targetPoint" />
          </mxGeometry>
        </mxCell>
        <mxCell id="AoH2jqG6qm3q8wurrTMe-30" value="Create account" style="ellipse;whiteSpace=wrap;html=1;" vertex="1" parent="1">
          <mxGeometry x="62" y="-160" width="91" height="36" as="geometry" />
        </mxCell>
        <mxCell id="AoH2jqG6qm3q8wurrTMe-31" value="" style="endArrow=none;html=1;rounded=0;fontSize=12;startSize=8;endSize=8;curved=1;exitX=1;exitY=0.3333333333333333;exitDx=0;exitDy=0;exitPerimeter=0;entryX=0;entryY=0.5;entryDx=0;entryDy=0;" edge="1" parent="1" source="AoH2jqG6qm3q8wurrTMe-3" target="AoH2jqG6qm3q8wurrTMe-30">
          <mxGeometry width="50" height="50" relative="1" as="geometry">
            <mxPoint x="-87" y="105" as="sourcePoint" />
            <mxPoint x="72" y="-47" as="targetPoint" />
          </mxGeometry>
        </mxCell>
        <mxCell id="AoH2jqG6qm3q8wurrTMe-32" value="" style="endArrow=none;html=1;rounded=1;fontSize=12;startSize=8;endSize=8;curved=0;exitX=1;exitY=0.5;exitDx=0;exitDy=0;entryX=0.5;entryY=0;entryDx=0;entryDy=0;entryPerimeter=0;" edge="1" parent="1" source="AoH2jqG6qm3q8wurrTMe-30" target="AoH2jqG6qm3q8wurrTMe-4">
          <mxGeometry width="50" height="50" relative="1" as="geometry">
            <mxPoint x="-87" y="105" as="sourcePoint" />
            <mxPoint x="606" y="-18" as="targetPoint" />
            <Array as="points">
              <mxPoint x="612" y="-142" />
            </Array>
          </mxGeometry>
        </mxCell>
        <mxCell id="AoH2jqG6qm3q8wurrTMe-34" value="" style="endArrow=none;html=1;rounded=1;fontSize=12;startSize=8;endSize=8;curved=0;exitX=1;exitY=0.5;exitDx=0;exitDy=0;" edge="1" parent="1" source="AoH2jqG6qm3q8wurrTMe-10">
          <mxGeometry width="50" height="50" relative="1" as="geometry">
            <mxPoint x="400" y="115" as="sourcePoint" />
            <mxPoint x="611" y="-99" as="targetPoint" />
            <Array as="points">
              <mxPoint x="610" y="332" />
              <mxPoint x="751" y="-79" />
            </Array>
          </mxGeometry>
        </mxCell>
        <mxCell id="AoH2jqG6qm3q8wurrTMe-35" value="Verify Security Questions" style="ellipse;whiteSpace=wrap;html=1;" vertex="1" parent="1">
          <mxGeometry x="317" y="232" width="97" height="46" as="geometry" />
        </mxCell>
        <mxCell id="AoH2jqG6qm3q8wurrTMe-36" value="&amp;lt;&amp;lt;include&amp;gt;&amp;gt;" style="html=1;verticalAlign=bottom;labelBackgroundColor=default;endArrow=open;endFill=0;dashed=1;rounded=0;fontSize=12;startSize=8;endSize=8;curved=1;entryX=0;entryY=1;entryDx=0;entryDy=0;exitX=0.5;exitY=0;exitDx=0;exitDy=0;" edge="1" parent="1" source="AoH2jqG6qm3q8wurrTMe-10" target="AoH2jqG6qm3q8wurrTMe-35">
          <mxGeometry x="0.0772" y="-6" width="160" relative="1" as="geometry">
            <mxPoint x="297" y="201" as="sourcePoint" />
            <mxPoint x="457" y="201" as="targetPoint" />
            <mxPoint as="offset" />
          </mxGeometry>
        </mxCell>
      </root>
    </mxGraphModel>
  </diagram>
</mxfile>
